<svg width="41" height="40" viewBox="0 0 41 40" fill="none" xmlns="http://www.w3.org/2000/svg">
<g clip-path="url(#clip0_2_438)">
<path d="M0.454529 0H40.4545V40H0.454529V0Z" fill="#F7DF1E"/>
<path d="M10.972 33.4269L14.033 31.5744C14.6236 32.6214 15.1608 33.5074 16.4494 33.5074C17.6845 33.5074 18.4634 33.0242 18.4634 31.1449V18.3639H22.2223V31.198C22.2223 35.0913 19.9401 36.8635 16.6105 36.8635C13.6034 36.8635 11.858 35.3061 10.9719 33.4266M24.2641 33.0241L27.3247 31.2521C28.1305 32.5678 29.1776 33.5344 31.0301 33.5344C32.5878 33.5344 33.5809 32.7556 33.5809 31.6816C33.5809 30.3928 32.5606 29.9363 30.8422 29.1847L29.9026 28.7816C27.1906 27.6274 25.3917 26.1774 25.3917 23.1164C25.3917 20.2971 27.5397 18.1489 30.8961 18.1489C33.2858 18.1489 35.0042 18.9814 36.2392 21.1563L33.3123 23.036C32.6678 21.8814 31.97 21.425 30.8959 21.425C29.795 21.425 29.0969 22.1231 29.0969 23.036C29.0969 24.1636 29.795 24.6203 31.4059 25.3185L32.3456 25.7211C35.5409 27.0906 37.3398 28.4867 37.3398 31.628C37.3398 35.0114 34.6817 36.8639 31.1106 36.8639C27.6201 36.8639 25.3647 35.1992 24.2639 33.0242" fill="black"/>
</g>
<defs>
<clipPath id="clip0_2_438">
<rect width="40" height="40" fill="white" transform="translate(0.454529)"/>
</clipPath>
</defs>
</svg>
