<svg width="41" height="42" viewBox="0 0 41 42" fill="none" xmlns="http://www.w3.org/2000/svg">
<g clip-path="url(#clip0_2_447)">
<path d="M40.2314 25.1159C39.9916 24.3895 39.3633 23.8836 38.5508 23.7622C38.1677 23.705 37.7289 23.7294 37.2097 23.8364C36.3047 24.0231 35.6333 24.0942 35.1433 24.1079C36.9928 20.9853 38.4967 17.4243 39.3625 14.0723C40.7625 8.65216 40.0144 6.18294 39.1402 5.06607C36.8266 2.10982 33.4511 0.521694 29.3789 0.4731C27.2066 0.446538 25.2995 0.875444 24.3047 1.18388C23.3784 1.02044 22.3825 0.929194 21.3375 0.912319C19.3786 0.881069 17.6478 1.3081 16.1689 2.18576C15.3502 1.90888 14.0361 1.51857 12.5186 1.26951C8.94954 0.683569 6.07298 1.14013 3.96892 2.62654C1.4211 4.42623 0.24001 7.5531 0.458447 11.9203C0.527822 13.3069 1.30345 17.5256 2.5247 21.5265C3.22657 23.8262 3.97501 25.7359 4.74923 27.2031C5.8472 29.2836 7.02204 30.5087 8.34095 30.9487C9.08017 31.195 10.4233 31.3675 11.8359 30.1909C12.015 30.4078 12.2539 30.6233 12.5709 30.8234C12.9736 31.0773 13.4659 31.2848 13.9577 31.4078C15.7297 31.8508 17.3895 31.74 18.8056 31.119C18.8144 31.3709 18.8211 31.6115 18.8267 31.8194C18.8361 32.1564 18.8455 32.4869 18.8578 32.7959C18.9417 34.8856 19.0839 36.5104 19.5052 37.6473C19.5283 37.7098 19.5594 37.8051 19.5922 37.9062C19.8024 38.5497 20.1538 39.6269 21.0478 40.4704C21.9736 41.3444 23.0934 41.6123 24.1191 41.6123C24.6334 41.6123 25.1242 41.5448 25.5547 41.4526C27.0891 41.1237 28.8317 40.6228 30.0924 38.8278C31.2842 37.1309 31.8636 34.5751 31.9684 30.5481C31.982 30.4342 31.9945 30.3254 32.0066 30.2219L32.0316 30.009L32.3124 30.0337L32.3847 30.0386C33.9475 30.1098 35.8584 29.7784 37.032 29.2333C37.9594 28.8029 40.9311 27.234 40.2314 25.1159Z" fill="black"/>
<path d="M37.5592 25.5278C32.9124 26.4864 32.5928 24.9131 32.5928 24.9131C37.4991 17.633 39.5502 8.39187 37.7803 6.13015C32.9516 -0.0393782 24.593 2.87843 24.4534 2.95406L24.4086 2.96218C23.4905 2.77156 22.4631 2.65812 21.3083 2.63922C19.2058 2.60484 17.6108 3.19047 16.4005 4.10828C16.4005 4.10828 1.48954 -2.03453 2.18314 11.8339C2.33064 14.7842 6.41189 34.1578 11.2797 28.3061C13.0589 26.1662 14.7781 24.357 14.7781 24.357C15.6319 24.9242 16.6541 25.2136 17.7256 25.1097L17.8089 25.0391C17.783 25.3047 17.7949 25.5645 17.8422 25.8722C16.5881 27.2733 16.9567 27.5192 14.4499 28.0353C11.9131 28.5581 13.4033 29.4887 14.3763 29.7322C15.5558 30.027 18.2845 30.4448 20.1283 27.8637L20.0549 28.1583C20.5461 28.5519 20.8911 30.7181 20.8333 32.682C20.7755 34.6458 20.7369 35.9941 21.1239 37.0472C21.5113 38.1003 21.897 40.4698 25.1927 39.7637C27.9463 39.1736 29.3733 37.6444 29.5719 35.0934C29.7127 33.28 30.0316 33.5481 30.0516 31.9267L30.3074 31.1592C30.6022 28.7009 30.3542 27.9078 32.0506 28.2767L32.4631 28.313C33.7116 28.3697 35.346 28.112 36.3052 27.6662C38.3705 26.7078 39.5955 25.1073 37.5589 25.5278H37.5592Z" fill="#336791"/>
<path d="M17.2734 13.1533C16.8546 13.095 16.4754 13.1489 16.2836 13.2942C16.1757 13.3759 16.1423 13.4706 16.1332 13.5358C16.1092 13.7084 16.2301 13.8994 16.3045 13.9978C16.5148 14.2766 16.822 14.4681 17.1261 14.5103C17.1701 14.5166 17.214 14.5194 17.2576 14.5194C17.7646 14.5194 18.2257 14.1245 18.2664 13.8331C18.3171 13.4681 17.7873 13.2247 17.2734 13.1533ZM31.1459 13.1648C31.1059 12.8788 30.5968 12.7972 30.1137 12.8644C29.6312 12.9316 29.1634 13.1494 29.2025 13.4361C29.2337 13.6591 29.6364 14.0397 30.1129 14.0397C30.1532 14.0397 30.1939 14.037 30.2348 14.0313C30.5529 13.9872 30.7864 13.7852 30.8973 13.6688C31.0661 13.4913 31.1639 13.2934 31.1459 13.1648Z" fill="white"/>
<path d="M39.1055 25.4189C38.9283 24.8831 38.358 24.7108 37.4105 24.9064C34.5972 25.487 33.5897 25.0848 33.259 24.8412C35.4457 21.51 37.2446 17.4831 38.2151 13.7261C38.6747 11.9464 38.9286 10.2936 38.9494 8.94639C38.9724 7.4678 38.7205 6.38124 38.2012 5.71749C36.1071 3.04171 33.0337 1.60639 29.3133 1.56702C26.7557 1.53827 24.5947 2.1928 24.1758 2.37686C23.2937 2.15749 22.3319 2.0228 21.2849 2.00561C19.3649 1.97452 17.7052 2.43421 16.3312 3.37124C15.7343 3.14905 14.1918 2.61952 12.3054 2.31561C9.04412 1.79061 6.45256 2.18843 4.60318 3.49858C2.39646 5.06202 1.37771 7.85671 1.57506 11.8048C1.64146 13.1331 2.39834 17.2194 3.59272 21.1326C5.1649 26.2833 6.87396 29.1991 8.67209 29.7989C8.88256 29.8691 9.12522 29.9181 9.39287 29.9181C10.0488 29.9181 10.853 29.6225 11.6897 28.6166C12.7103 27.3923 13.766 26.1977 14.8555 25.0344C15.5624 25.4137 16.339 25.6256 17.1332 25.6469C17.1347 25.6676 17.1368 25.6884 17.1387 25.7091C17.0019 25.8721 16.8681 26.0375 16.7371 26.2051C16.1868 26.9037 16.0722 27.0492 14.3008 27.4139C13.7969 27.518 12.4587 27.7937 12.439 28.7319C12.4177 29.7569 14.021 30.1873 14.2037 30.233C14.8402 30.3923 15.4535 30.4709 16.0383 30.4709C17.4607 30.4709 18.7124 30.0034 19.7127 29.0989C19.6819 32.753 19.8343 36.3536 20.273 37.4506C20.6324 38.3487 21.5102 40.5436 24.283 40.5434C24.6899 40.5434 25.1377 40.4961 25.6304 40.3905C28.5243 39.7701 29.781 38.4911 30.2671 35.6712C30.5272 34.1642 30.9737 30.5656 31.1837 28.6353C31.6268 28.7736 32.1972 28.8369 32.814 28.8367C34.1002 28.8367 35.5844 28.5634 36.5152 28.1314C37.5608 27.6458 39.4477 26.4542 39.1055 25.4189ZM32.214 12.3751C32.2044 12.945 32.126 13.4623 32.0429 14.0023C31.9533 14.5831 31.8608 15.1836 31.8376 15.9125C31.8146 16.6219 31.9032 17.3594 31.9888 18.0726C32.1619 19.5133 32.3396 20.9964 31.6519 22.4598C31.5377 22.2574 31.436 22.0482 31.3472 21.8334C31.2618 21.6262 31.0762 21.2934 30.8191 20.8328C29.8193 19.0397 27.4779 14.8406 28.6765 13.1272C29.0335 12.6172 29.9396 12.0928 32.214 12.3751ZM29.4571 2.72093C32.7905 2.79452 35.4274 4.04155 37.2943 6.42718C38.7262 8.25702 37.1494 16.5831 32.5849 23.7661C32.539 23.7077 32.4929 23.6495 32.4465 23.5916L32.3887 23.5194C33.5682 21.5714 33.3376 19.644 33.1322 17.9353C33.0479 17.234 32.9682 16.5717 32.9885 15.9495C33.0094 15.2901 33.0966 14.7245 33.181 14.1776C33.2846 13.5037 33.3901 12.8064 33.361 11.9844C33.3827 11.8981 33.3915 11.7962 33.3801 11.6753C33.3058 10.887 32.4058 8.5278 30.5715 6.39249C29.568 5.22452 28.1047 3.91749 26.1068 3.03593C26.9662 2.8578 28.1413 2.69171 29.4571 2.72093ZM10.8043 27.8803C9.8824 28.9887 9.24584 28.7762 9.03647 28.7065C7.6724 28.2515 6.08959 25.3684 4.69412 20.7966C3.48662 16.8406 2.781 12.8626 2.72506 11.7472C2.54881 8.21936 3.40397 5.76077 5.26693 4.43952C8.29881 2.28952 13.2835 3.57639 15.2865 4.22905C15.2577 4.25749 15.2277 4.28405 15.1993 4.31296C11.9124 7.63233 11.9904 13.3036 11.9985 13.6503C11.9982 13.784 12.0094 13.9734 12.0247 14.2339C12.0813 15.1878 12.1866 16.9631 11.9054 18.9736C11.6441 20.8419 12.2201 22.6705 13.4852 23.9906C13.6151 24.1258 13.7515 24.2545 13.8941 24.3762C13.331 24.9794 12.1071 26.3131 10.8043 27.8803ZM14.3166 23.1939C13.2969 22.1298 12.8338 20.6498 13.0458 19.133C13.3427 17.0092 13.2332 15.1595 13.1743 14.1658C13.166 14.0267 13.1587 13.9048 13.1544 13.8087C13.6346 13.383 15.8597 12.1908 17.4466 12.5544C18.1707 12.7201 18.6119 13.2133 18.7954 14.0614C19.7447 18.4525 18.921 20.2826 18.2591 21.7534C18.1227 22.0564 17.9938 22.3428 17.8838 22.639L17.7985 22.8681C17.5826 23.4472 17.3816 23.9856 17.2571 24.4969C16.173 24.4937 15.1185 24.0306 14.3166 23.1937V23.1939ZM14.483 29.1158C14.1665 29.0367 13.8818 28.8994 13.7147 28.7855C13.8543 28.7198 14.1026 28.6305 14.5332 28.5417C16.6171 28.1128 16.939 27.81 17.6418 26.9176C17.8029 26.713 17.9855 26.4811 18.2385 26.1986L18.2388 26.1983C18.6155 25.7764 18.7879 25.848 19.1004 25.9776C19.3537 26.0823 19.6004 26.3998 19.7004 26.7492C19.7477 26.9142 19.8008 27.2273 19.6269 27.4711C18.1588 29.5267 16.0194 29.5003 14.483 29.1158ZM25.3891 39.2645C22.8397 39.8108 21.9371 38.51 21.3422 37.023C20.9583 36.063 20.7696 31.7339 20.9035 26.9531C20.9052 26.8895 20.8962 26.8281 20.8787 26.7703C20.863 26.6561 20.8392 26.5432 20.8074 26.4325C20.6083 25.7369 20.1232 25.155 19.5412 24.9137C19.3099 24.818 18.8855 24.6422 18.3755 24.7726C18.4843 24.3245 18.6729 23.8184 18.8774 23.2705L18.9632 23.04C19.0597 22.7801 19.181 22.5109 19.3091 22.2259C20.0018 20.6872 20.9504 18.5795 19.9208 13.8181C19.5352 12.0347 18.2474 11.1637 16.2952 11.3661C15.1249 11.4872 14.0541 11.9594 13.5201 12.2301C13.4052 12.2883 13.3002 12.3445 13.2021 12.3992C13.3512 10.6023 13.9143 7.24421 16.0208 5.11952C17.3472 3.78202 19.1137 3.12139 21.2658 3.15702C25.5065 3.22639 28.2258 5.40264 29.7605 7.21624C31.083 8.77889 31.7991 10.3531 32.0849 11.2022C29.9357 10.9836 28.474 11.4078 27.733 12.4672C26.121 14.7716 28.6149 19.2441 29.8135 21.3936C30.0333 21.7875 30.223 22.128 30.2827 22.2726C30.673 23.2186 31.1783 23.8501 31.5472 24.3111C31.6604 24.4523 31.7701 24.5894 31.8535 24.709C31.2026 24.8967 30.0333 25.3303 30.1399 27.4976C30.054 28.5851 29.4429 33.6767 29.1324 35.4756C28.7226 37.8522 27.848 38.7373 25.3891 39.2647V39.2645ZM36.0304 27.087C35.3647 27.3959 34.2508 27.6276 33.1927 27.6775C32.024 27.7322 31.429 27.5465 31.289 27.4323C31.2233 26.0817 31.726 25.9406 32.258 25.7912C32.3416 25.7678 32.4232 25.7448 32.5019 25.7173C32.5508 25.7572 32.6044 25.7967 32.6632 25.8355C33.6026 26.4555 35.278 26.5223 37.6435 26.034L37.6694 26.0289C37.3504 26.3272 36.8044 26.7275 36.0304 27.087Z" fill="white"/>
</g>
<defs>
<clipPath id="clip0_2_447">
<rect width="40" height="41.25" fill="white" transform="translate(0.386475 0.414978)"/>
</clipPath>
</defs>
</svg>
