<svg width="256" height="256" viewBox="0 0 256 256" fill="none" xmlns="http://www.w3.org/2000/svg">
<path d="M235.54 150.21C229.08 171.3 216.132 189.815 198.54 203.12C183.095 214.745 164.715 221.834 145.464 223.594C126.213 225.353 106.853 221.712 89.5568 213.079C72.2604 204.446 57.7123 191.164 47.5454 174.722C37.3785 158.281 31.9953 139.331 32 120C31.9305 97.4365 39.2656 75.4734 52.88 57.48C66.1854 39.8879 84.7003 26.9404 105.79 20.48C107.18 20.052 108.66 20.011 110.072 20.3614C111.483 20.7119 112.773 21.4405 113.801 22.4689C114.83 23.4973 115.558 24.7866 115.909 26.1981C116.259 27.6096 116.218 29.09 115.79 30.48C111.178 45.7343 110.792 61.9539 114.671 77.4106C118.551 92.8673 126.551 106.982 137.819 118.251C149.088 129.519 163.203 137.519 178.659 141.399C194.116 145.278 210.336 144.892 225.59 140.28C226.98 139.852 228.46 139.811 229.872 140.161C231.283 140.512 232.573 141.24 233.601 142.269C234.63 143.297 235.358 144.587 235.709 145.998C236.059 147.41 236.018 148.89 235.59 150.28L235.54 150.21Z" fill="#363737"/>
</svg>
