<svg width="41" height="41" viewBox="0 0 41 41" fill="none" xmlns="http://www.w3.org/2000/svg">
<path d="M20.629 2.66496C11.754 2.66496 12.3152 6.50246 12.3152 6.50246V10.49H20.7552V11.74H8.95396C8.95396 11.74 3.27271 11.04 3.27271 20.0462C3.27271 29.0525 8.28896 28.6862 8.28896 28.6862H11.1852V24.485C11.1852 24.485 11.0227 19.4687 16.0602 19.4687H24.5127C24.5127 19.4687 29.2277 19.5437 29.2277 14.9037V7.28996C29.2277 7.28996 29.9427 2.64996 20.6752 2.64996L20.629 2.66496ZM15.964 5.33621C16.264 5.32864 16.5596 5.41022 16.8132 5.57063C17.0669 5.73104 17.2673 5.96308 17.3892 6.2374C17.511 6.51172 17.5487 6.816 17.4975 7.11175C17.4464 7.40751 17.3087 7.68146 17.1019 7.89897C16.8951 8.11647 16.6284 8.26775 16.3355 8.33367C16.0427 8.3996 15.7369 8.37721 15.4568 8.26934C15.1768 8.16147 14.9349 7.97296 14.762 7.72766C14.589 7.48235 14.4927 7.19126 14.4852 6.89121V6.86621C14.4852 6.46375 14.6451 6.07777 14.9297 5.79318C15.2143 5.50859 15.6002 5.34871 16.0027 5.34871L15.964 5.33621Z" fill="url(#paint0_linear_2_461)"/>
<path d="M20.879 37.4275C29.754 37.4275 29.1927 33.5775 29.1927 33.5775V29.6025H20.754V28.3525H32.5915C32.5915 28.3525 38.2727 28.9875 38.2727 20.0337C38.2727 11.08 33.2565 11.3937 33.2565 11.3937H30.3227V15.54C30.3227 15.54 30.4852 20.5562 25.4477 20.5562H16.9915C16.9915 20.5562 12.2727 20.485 12.2727 25.125V32.79C12.2727 32.79 11.5577 37.43 20.8252 37.43H20.8752L20.879 37.4275ZM25.544 34.7437C25.2439 34.7513 24.9484 34.6697 24.6947 34.5093C24.441 34.3489 24.2406 34.1169 24.1188 33.8426C23.997 33.5682 23.9593 33.264 24.0104 32.9682C24.0615 32.6724 24.1992 32.3985 24.406 32.181C24.6129 31.9635 24.8796 31.8122 25.1724 31.7463C25.4652 31.6804 25.771 31.7027 26.0511 31.8106C26.3312 31.9185 26.573 32.107 26.7459 32.3523C26.9189 32.5976 27.0152 32.8887 27.0227 33.1887V33.2262C27.0227 33.6287 26.8628 34.0147 26.5783 34.2993C26.2937 34.5839 25.9077 34.7437 25.5052 34.7437H25.544Z" fill="url(#paint1_linear_2_461)"/>
<defs>
<linearGradient id="paint0_linear_2_461" x1="6.73165" y1="6.06859" x2="23.34" y2="22.6393" gradientUnits="userSpaceOnUse">
<stop stop-color="#387EB8"/>
<stop offset="1" stop-color="#366994"/>
</linearGradient>
<linearGradient id="paint1_linear_2_461" x1="16.5571" y1="16.8632" x2="35.5323" y2="33.4289" gradientUnits="userSpaceOnUse">
<stop stop-color="#FFE052"/>
<stop offset="1" stop-color="#FFC331"/>
</linearGradient>
</defs>
</svg>
