<svg width="25" height="25" viewBox="0 0 25 25" fill="none" xmlns="http://www.w3.org/2000/svg">
<g clip-path="url(#clip0_1_28)">
<path d="M11.7188 3.90625V1.5625C11.7188 1.3553 11.8011 1.15659 11.9476 1.01007C12.0941 0.86356 12.2928 0.78125 12.5 0.78125C12.7072 0.78125 12.9059 0.86356 13.0524 1.01007C13.1989 1.15659 13.2812 1.3553 13.2812 1.5625V3.90625C13.2812 4.11345 13.1989 4.31216 13.0524 4.45868C12.9059 4.60519 12.7072 4.6875 12.5 4.6875C12.2928 4.6875 12.0941 4.60519 11.9476 4.45868C11.8011 4.31216 11.7188 4.11345 11.7188 3.90625ZM18.75 12.5C18.75 13.7361 18.3834 14.9445 17.6967 15.9723C17.0099 17.0001 16.0338 17.8012 14.8918 18.2742C13.7497 18.7473 12.4931 18.8711 11.2807 18.6299C10.0683 18.3888 8.95466 17.7935 8.08058 16.9194C7.2065 16.0453 6.61125 14.9317 6.37009 13.7193C6.12893 12.5069 6.25271 11.2503 6.72575 10.1082C7.1988 8.96619 7.99988 7.99007 9.02769 7.30331C10.0555 6.61656 11.2639 6.25 12.5 6.25C14.157 6.25181 15.7457 6.91087 16.9174 8.08258C18.0891 9.25429 18.7482 10.843 18.75 12.5ZM17.1875 12.5C17.1875 11.5729 16.9126 10.6666 16.3975 9.89576C15.8824 9.12491 15.1504 8.5241 14.2938 8.16931C13.4373 7.81453 12.4948 7.7217 11.5855 7.90257C10.6762 8.08344 9.841 8.52988 9.18544 9.18544C8.52988 9.841 8.08344 10.6762 7.90257 11.5855C7.7217 12.4948 7.81453 13.4373 8.16931 14.2938C8.5241 15.1504 9.12491 15.8824 9.89576 16.3975C10.6666 16.9126 11.5729 17.1875 12.5 17.1875C13.7428 17.1862 14.9343 16.6919 15.8131 15.8131C16.6919 14.9343 17.1862 13.7428 17.1875 12.5ZM5.69727 6.80273C5.84386 6.94933 6.04268 7.03168 6.25 7.03168C6.45732 7.03168 6.65614 6.94933 6.80273 6.80273C6.94933 6.65614 7.03168 6.45732 7.03168 6.25C7.03168 6.04268 6.94933 5.84386 6.80273 5.69727L5.24023 4.13477C5.09364 3.98817 4.89482 3.90582 4.6875 3.90582C4.48018 3.90582 4.28136 3.98817 4.13477 4.13477C3.98817 4.28136 3.90582 4.48018 3.90582 4.6875C3.90582 4.89482 3.98817 5.09364 4.13477 5.24023L5.69727 6.80273ZM5.69727 18.1973L4.13477 19.7598C3.98817 19.9064 3.90582 20.1052 3.90582 20.3125C3.90582 20.5198 3.98817 20.7186 4.13477 20.8652C4.28136 21.0118 4.48018 21.0942 4.6875 21.0942C4.89482 21.0942 5.09364 21.0118 5.24023 20.8652L6.80273 19.3027C6.87532 19.2301 6.9329 19.144 6.97218 19.0491C7.01147 18.9543 7.03168 18.8527 7.03168 18.75C7.03168 18.6473 7.01147 18.5457 6.97218 18.4509C6.9329 18.356 6.87532 18.2699 6.80273 18.1973C6.73015 18.1247 6.64398 18.0671 6.54914 18.0278C6.4543 17.9885 6.35265 17.9683 6.25 17.9683C6.14735 17.9683 6.0457 17.9885 5.95086 18.0278C5.85602 18.0671 5.76985 18.1247 5.69727 18.1973ZM18.75 7.03125C18.8526 7.03133 18.9543 7.01119 19.0491 6.97198C19.1439 6.93277 19.2301 6.87526 19.3027 6.80273L20.8652 5.24023C21.0118 5.09364 21.0942 4.89482 21.0942 4.6875C21.0942 4.48018 21.0118 4.28136 20.8652 4.13477C20.7186 3.98817 20.5198 3.90582 20.3125 3.90582C20.1052 3.90582 19.9064 3.98817 19.7598 4.13477L18.1973 5.69727C18.0879 5.80653 18.0134 5.94579 17.9832 6.09742C17.953 6.24905 17.9685 6.40622 18.0276 6.54906C18.0868 6.69189 18.187 6.81394 18.3156 6.89978C18.4442 6.98562 18.5954 7.03137 18.75 7.03125ZM19.3027 18.1973C19.1561 18.0507 18.9573 17.9683 18.75 17.9683C18.5427 17.9683 18.3439 18.0507 18.1973 18.1973C18.0507 18.3439 17.9683 18.5427 17.9683 18.75C17.9683 18.9573 18.0507 19.1561 18.1973 19.3027L19.7598 20.8652C19.8324 20.9378 19.9185 20.9954 20.0134 21.0347C20.1082 21.074 20.2098 21.0942 20.3125 21.0942C20.4152 21.0942 20.5168 21.074 20.6116 21.0347C20.7065 20.9954 20.7926 20.9378 20.8652 20.8652C20.9378 20.7926 20.9954 20.7065 21.0347 20.6116C21.074 20.5168 21.0942 20.4152 21.0942 20.3125C21.0942 20.2098 21.074 20.1082 21.0347 20.0134C20.9954 19.9185 20.9378 19.8324 20.8652 19.7598L19.3027 18.1973ZM4.6875 12.5C4.6875 12.2928 4.60519 12.0941 4.45868 11.9476C4.31216 11.8011 4.11345 11.7188 3.90625 11.7188H1.5625C1.3553 11.7188 1.15659 11.8011 1.01007 11.9476C0.86356 12.0941 0.78125 12.2928 0.78125 12.5C0.78125 12.7072 0.86356 12.9059 1.01007 13.0524C1.15659 13.1989 1.3553 13.2812 1.5625 13.2812H3.90625C4.11345 13.2812 4.31216 13.1989 4.45868 13.0524C4.60519 12.9059 4.6875 12.7072 4.6875 12.5ZM12.5 20.3125C12.2928 20.3125 12.0941 20.3948 11.9476 20.5413C11.8011 20.6878 11.7188 20.8865 11.7188 21.0938V23.4375C11.7188 23.6447 11.8011 23.8434 11.9476 23.9899C12.0941 24.1364 12.2928 24.2188 12.5 24.2188C12.7072 24.2188 12.9059 24.1364 13.0524 23.9899C13.1989 23.8434 13.2812 23.6447 13.2812 23.4375V21.0938C13.2812 20.8865 13.1989 20.6878 13.0524 20.5413C12.9059 20.3948 12.7072 20.3125 12.5 20.3125ZM23.4375 11.7188H21.0938C20.8865 11.7188 20.6878 11.8011 20.5413 11.9476C20.3948 12.0941 20.3125 12.2928 20.3125 12.5C20.3125 12.7072 20.3948 12.9059 20.5413 13.0524C20.6878 13.1989 20.8865 13.2812 21.0938 13.2812H23.4375C23.6447 13.2812 23.8434 13.1989 23.9899 13.0524C24.1364 12.9059 24.2188 12.7072 24.2188 12.5C24.2188 12.2928 24.1364 12.0941 23.9899 11.9476C23.8434 11.8011 23.6447 11.7188 23.4375 11.7188Z" fill="#F8F8F8"/>
</g>
<defs>
<clipPath id="clip0_1_28">
<rect width="25" height="25" fill="white"/>
</clipPath>
</defs>
</svg>
