<svg width="40" height="40" viewBox="0 0 40 40" fill="none" xmlns="http://www.w3.org/2000/svg">
<path d="M7.37751 34.0013L4.57001 2.5H35.43L32.6188 33.9963L19.9813 37.5L7.37751 34.0013Z" fill="#1572B6"/>
<path d="M20 34.8225L30.2125 31.9912L32.615 5.07623H20V34.8225Z" fill="#33A9DC"/>
<path d="M20 16.4888H25.1125L25.465 12.5325H20V8.66876H29.6875L29.595 9.70501L28.6462 20.3525H20V16.4888Z" fill="white"/>
<path d="M20.0237 26.5225L20.0062 26.5275L15.7037 25.365L15.4287 22.2838H11.55L12.0912 28.35L20.005 30.5475L20.0237 30.5425V26.5225Z" fill="#EBEBEB"/>
<path d="M24.7838 20.1887L24.3188 25.3625L20.01 26.525V30.545L27.93 28.35L27.9888 27.6975L28.66 20.1887H24.7838Z" fill="white"/>
<path d="M20.0137 8.66876V12.5325H10.6812L10.6037 11.6638L10.4275 9.70501L10.335 8.66876H20.0137ZM20 16.4888V20.3525H15.7512L15.6737 19.4838L15.4987 17.525L15.4062 16.4888H20Z" fill="#EBEBEB"/>
</svg>
