<svg width="41" height="42" viewBox="0 0 41 42" fill="none" xmlns="http://www.w3.org/2000/svg">
<g clip-path="url(#clip0_2_441)">
<path d="M40.667 9.31564C40.6818 9.37048 40.6895 9.42705 40.6895 9.48392V18.3227C40.6895 18.5536 40.566 18.7669 40.3655 18.8817L32.9473 23.1531V31.6188C32.9473 31.732 32.9175 31.8433 32.861 31.9415C32.8045 32.0396 32.7231 32.1212 32.6251 32.178L17.1395 41.0925C17.104 41.1125 17.0654 41.1253 17.0266 41.1392C17.0121 41.1439 16.9985 41.1528 16.9832 41.1569C16.8749 41.1854 16.7611 41.1854 16.6529 41.1569C16.6351 41.1522 16.619 41.1424 16.6021 41.1359C16.5666 41.123 16.5296 41.1117 16.4959 41.0925L1.01336 32.1778C0.914975 32.1214 0.833225 32.0399 0.776356 31.9418C0.719488 31.8436 0.689512 31.7322 0.689453 31.6188V5.10252C0.689453 5.04439 0.697578 4.98798 0.711953 4.9333C0.716797 4.9147 0.728047 4.89783 0.734609 4.87923C0.746641 4.84548 0.758047 4.8108 0.775703 4.77939C0.787734 4.75845 0.805391 4.74158 0.819922 4.7222C0.838516 4.69642 0.855391 4.66986 0.877109 4.6472C0.895703 4.62877 0.919922 4.61502 0.940859 4.59892C0.964297 4.57955 0.985078 4.55861 1.01164 4.5433H1.01242L8.75398 0.0861098C8.85202 0.0296929 8.96314 0 9.07625 0C9.18936 0 9.30048 0.0296929 9.39852 0.0861098L17.1401 4.5433H17.1416C17.1674 4.55955 17.1893 4.57955 17.2126 4.59814C17.2335 4.61423 17.257 4.62877 17.2754 4.64658C17.298 4.66986 17.3141 4.69658 17.3334 4.7222C17.3471 4.74158 17.3657 4.75845 17.377 4.77939C17.3954 4.81158 17.4059 4.84548 17.4188 4.87939C17.4252 4.89783 17.4365 4.9147 17.4413 4.93408C17.4562 4.98892 17.4638 5.04564 17.464 5.10252V21.6641L23.9149 17.9495V9.48314C23.9149 9.42689 23.923 9.36955 23.9376 9.31564C23.9432 9.29627 23.9537 9.27939 23.9601 9.26095C23.973 9.22705 23.9843 9.1922 24.002 9.16095C24.014 9.14002 24.0316 9.12314 24.0455 9.10377C24.0648 9.07798 24.0809 9.05142 24.1034 9.02877C24.1221 9.01033 24.1454 8.99658 24.1663 8.98048C24.1905 8.96111 24.2115 8.94017 24.2373 8.92486H24.238L31.9804 4.46767C32.0784 4.41118 32.1895 4.38144 32.3027 4.38144C32.4158 4.38144 32.5269 4.41118 32.6249 4.46767L40.3665 8.92486C40.3938 8.94095 40.4148 8.96111 40.439 8.97955C40.459 8.9958 40.4824 9.01033 40.501 9.02798C40.5235 9.05142 40.5396 9.07798 40.5588 9.10377C40.5735 9.12314 40.5912 9.14002 40.6026 9.16095C40.621 9.1922 40.6315 9.22705 40.6443 9.26095C40.6516 9.27939 40.6621 9.29627 40.667 9.31564ZM39.399 17.9497V10.5997L36.6898 12.1592L32.9471 14.3142V21.6642L39.3998 17.9497H39.399ZM31.6574 31.2458V23.8906L27.9759 25.9933L17.4632 31.9933V39.4174L31.6574 31.2455V31.2458ZM1.97992 6.21814V31.2458L16.1726 39.4167V31.9941L8.7582 27.7978L8.75586 27.7963L8.75273 27.7947C8.72773 27.7802 8.70664 27.7592 8.68336 27.7416C8.66305 27.7253 8.63977 27.7125 8.62211 27.6947L8.62055 27.6924C8.59961 27.6722 8.58508 27.6472 8.56742 27.6247C8.55117 27.6028 8.53195 27.5844 8.51898 27.5619L8.5182 27.5594C8.50367 27.5353 8.49477 27.5063 8.4843 27.4789C8.47383 27.4547 8.46023 27.432 8.45367 27.4064V27.4056C8.4457 27.375 8.44414 27.3427 8.44086 27.3113C8.43773 27.2872 8.43117 27.263 8.43117 27.2388V9.93283L4.68914 7.77689L1.97992 6.21908V6.21814ZM9.07711 1.38955L2.6268 5.10252L9.07555 8.81533L15.5249 5.10158L9.07555 1.38955H9.07711ZM12.4315 24.5611L16.1734 22.407V6.21814L13.4645 7.77783L9.72148 9.93267V26.1214L12.4315 24.5611ZM32.3026 5.77111L25.8532 9.48392L32.3026 13.1969L38.7512 9.48314L32.3026 5.77111ZM31.6573 14.3142L27.9146 12.1592L25.2055 10.5997V17.9497L28.9474 20.1039L31.6574 21.6642V14.3142H31.6573ZM16.8171 30.8777L26.277 25.477L31.0057 22.7783L24.561 19.0678L17.1409 23.3397L10.378 27.2331L16.8171 30.8777Z" fill="#FF2D20"/>
</g>
<defs>
<clipPath id="clip0_2_441">
<rect width="40" height="41.25" fill="white" transform="translate(0.689453)"/>
</clipPath>
</defs>
</svg>
