<svg width="41" height="40" viewBox="0 0 41 40" fill="none" xmlns="http://www.w3.org/2000/svg">
<g clip-path="url(#clip0_2_471)">
<path d="M31.5492 0H10.2992C5.12152 0 0.924194 4.19733 0.924194 9.375V30.625C0.924194 35.8027 5.12152 40 10.2992 40H31.5492C36.7269 40 40.9242 35.8027 40.9242 30.625V9.375C40.9242 4.19733 36.7269 0 31.5492 0Z" fill="#00B4E0"/>
<path d="M7.25232 17.6928C7.18982 17.6928 7.17419 17.6616 7.20544 17.6147L7.53357 17.1928C7.56482 17.1459 7.64294 17.1147 7.70544 17.1147H13.2836C13.3461 17.1147 13.3617 17.1616 13.3304 17.2084L13.0648 17.6147C13.0336 17.6616 12.9554 17.7084 12.9086 17.7084L7.25232 17.6928ZM4.89294 19.1303C4.83044 19.1303 4.81482 19.0991 4.84607 19.0522L5.17419 18.6303C5.20544 18.5834 5.28357 18.5522 5.34607 18.5522H12.4711C12.5336 18.5522 12.5648 18.5991 12.5492 18.6459L12.4242 19.0209C12.4086 19.0834 12.3461 19.1147 12.2836 19.1147L4.89294 19.1303ZM8.67419 20.5678C8.61169 20.5678 8.59607 20.5209 8.62732 20.4741L8.84607 20.0834C8.87732 20.0366 8.93982 19.9897 9.00232 19.9897H12.1273C12.1898 19.9897 12.2211 20.0366 12.2211 20.0991L12.1898 20.4741C12.1898 20.5366 12.1273 20.5834 12.0804 20.5834L8.67419 20.5678ZM24.8929 17.4116C23.9086 17.6616 23.2367 17.8491 22.2679 18.0991C22.0336 18.1616 22.0179 18.1772 21.8148 17.9428C21.5804 17.6772 21.4086 17.5053 21.0804 17.3491C20.0961 16.8647 19.1429 17.0053 18.2523 17.5834C17.1898 18.2709 16.6429 19.2866 16.6586 20.5522C16.6742 21.8022 17.5336 22.8334 18.7679 23.0053C19.8304 23.1459 20.7211 22.7709 21.4242 21.9741C21.5648 21.8022 21.6898 21.6147 21.8461 21.3959H18.8304C18.5023 21.3959 18.4242 21.1928 18.5336 20.9272C18.7367 20.4428 19.1117 19.6303 19.3304 19.2241C19.3773 19.1303 19.4867 18.9741 19.7211 18.9741H25.4086C25.3773 19.3959 25.3773 19.8178 25.3148 20.2397C25.1429 21.3647 24.7211 22.3959 24.0336 23.3022C22.9086 24.7866 21.4398 25.7084 19.5804 25.9584C18.0492 26.1616 16.6273 25.8647 15.3773 24.9272C14.2211 24.0522 13.5648 22.8959 13.3929 21.4584C13.1898 19.7553 13.6898 18.2241 14.7211 16.8803C15.8304 15.4272 17.2992 14.5053 19.0961 14.1772C20.5648 13.9116 21.9711 14.0834 23.2367 14.9428C24.0648 15.4897 24.6586 16.2397 25.0492 17.1459C25.1429 17.2866 25.0804 17.3647 24.8929 17.4116Z" fill="white"/>
<path d="M30.0648 26.0522C28.643 26.021 27.3461 25.6147 26.2523 24.6772C25.3305 23.8803 24.7523 22.8647 24.5648 21.6616C24.2836 19.896 24.768 18.3335 25.8305 16.9428C26.9711 15.4428 28.3461 14.6616 30.2055 14.3335C31.7992 14.0522 33.2992 14.2085 34.6586 15.1303C35.893 15.9741 36.6586 17.1147 36.8617 18.6147C37.1273 20.7241 36.518 22.4428 35.0648 23.9116C34.0336 24.9585 32.768 25.6147 31.3148 25.9116C30.893 25.9897 30.4711 26.0053 30.0648 26.0522ZM33.7836 19.7397C33.768 19.5366 33.768 19.3803 33.7367 19.2241C33.4555 17.6772 32.0336 16.8022 30.5492 17.146C29.0961 17.4741 28.1586 18.396 27.8148 19.8647C27.5336 21.0835 28.1273 22.3178 29.2523 22.8178C30.1117 23.1928 30.9711 23.146 31.7992 22.7241C33.0336 22.0835 33.7055 21.0835 33.7836 19.7397Z" fill="white"/>
</g>
<defs>
<clipPath id="clip0_2_471">
<rect width="40" height="40" fill="white" transform="translate(0.924194)"/>
</clipPath>
</defs>
</svg>
