<svg width="44" height="30" viewBox="0 0 44 30" fill="none" xmlns="http://www.w3.org/2000/svg">
<g clip-path="url(#clip0_2_452)">
<path d="M13.5804 19.5436L14.8734 23.7388C15.1639 24.6913 15.2851 25.3562 15.2365 25.7352C15.9437 23.8413 16.4377 21.7774 16.7188 19.5436H18.2735C17.6051 23.1803 16.7233 25.823 15.6289 27.4716C14.7762 28.7421 13.842 29.3773 12.8248 29.3773C12.5536 29.3773 12.2192 29.2953 11.8224 29.1326V28.256C12.0163 28.2844 12.2437 28.2996 12.5053 28.2996C12.9798 28.2996 13.3623 28.1681 13.6533 27.9056C14.0017 27.5857 14.1762 27.2263 14.1762 26.8278C14.1762 26.5558 14.0401 25.9975 13.7693 25.1529L11.9678 19.5436H13.5804ZM3.68497 16.9651L6.05316 24.1907H6.06779L8.45052 16.9651H10.3973C10.8235 20.5485 11.0753 23.8271 11.1526 26.799H9.51131C9.45356 24.0209 9.2936 21.4086 9.03202 18.9615H9.01773L6.51841 26.799H5.2685L2.78431 18.9615H2.76968C2.58538 21.3116 2.46938 23.9239 2.42102 26.799H0.924316C1.02104 23.3024 1.26309 20.0247 1.65048 16.9651H3.68497Z" fill="#002E38"/>
<path d="M30.2149 16.8192C32.7624 16.8192 34.0361 18.4467 34.0361 21.7001C34.0361 23.468 33.6531 24.8034 32.8877 25.7056C32.7497 25.8704 32.5973 26.0128 32.4367 26.1448L34.2395 27.0362L34.2377 27.0361L33.5976 28.1414L31.25 26.7716C30.8608 26.8868 30.4327 26.9444 29.9661 26.9444C28.7153 26.9444 27.7809 26.5799 27.1632 25.8517C26.4852 25.0462 26.1463 23.7781 26.1463 22.0496C26.1463 20.2916 26.5287 18.9613 27.2943 18.0579C27.9917 17.2317 28.9654 16.8192 30.2149 16.8192ZM22.414 16.8335C23.3245 16.8335 24.1524 17.0771 24.8981 17.5626L24.5193 18.4066C23.8812 18.1354 23.2521 17.9992 22.6317 17.9992C22.1284 17.9992 21.7405 18.1204 21.4701 18.3642C21.1982 18.6058 21.03 18.9167 21.03 19.2958C21.03 19.8783 21.445 20.3834 22.2112 20.8102C22.4622 20.9474 22.7124 21.0862 22.9616 21.2266L23.0188 21.2588L23.0475 21.2749L23.1047 21.307L23.1333 21.3231L23.1905 21.3554C23.7705 21.6824 24.3162 21.9945 24.3162 21.9945C25.0824 22.5383 25.4643 23.1182 25.4643 24.0732C25.4643 24.9072 25.1586 25.5918 24.5494 26.1275C23.9397 26.6608 23.1207 26.9282 22.0949 26.9282C21.1356 26.9282 20.2059 26.6204 19.3053 26.01L19.7266 25.1653C20.5016 25.5537 21.2029 25.7478 21.8327 25.7478C22.4233 25.7478 22.8857 25.6159 23.2201 25.3555C23.5539 25.0931 23.7539 24.7273 23.7539 24.2634C23.7539 23.6795 23.3478 23.1803 22.6027 22.7616C22.3694 22.6327 22.1369 22.5026 21.9051 22.3713L21.848 22.339C21.7431 22.2797 21.6375 22.2197 21.5341 22.161L21.478 22.1291C20.9748 21.8429 20.5398 21.5929 20.5398 21.5929C19.795 21.048 19.4215 20.4635 19.4215 19.5002C19.4215 18.7036 19.7 18.0597 20.2562 17.5699C20.8138 17.0789 21.5331 16.8335 22.414 16.8335ZM37.0299 16.9651V25.5893H40.1242V26.799H35.4606V16.9651H37.0299ZM41.8436 25.593V25.7975H41.5034V26.7979H41.2433V25.7975H40.8899V25.593H41.8437H41.8436ZM42.4718 25.593L42.7985 26.4144L43.0985 25.593H43.4672V26.7979H43.2221V25.881L42.8806 26.7979H42.7038L42.3617 25.881H42.3486V26.7979H42.1167V25.593H42.4719H42.4718ZM30.0547 18.0285C28.5536 18.0285 27.8025 19.2675 27.8025 21.7437C27.8025 23.1621 28.0016 24.1907 28.3988 24.8317C28.7668 25.425 29.343 25.7211 30.1277 25.7211C31.6289 25.7211 32.3798 24.4725 32.3798 21.9765C32.3798 20.578 32.1808 19.5582 31.784 18.9168C31.4157 18.3248 30.8397 18.0285 30.0548 18.0285H30.0547Z" fill="#B36908"/>
<path d="M26.1201 1.0165C26.6181 -0.207147 28.3593 0.719524 29.035 1.14696C29.2007 1.2539 29.3906 1.47984 29.5805 1.56335C29.8767 1.57498 30.1727 1.59817 30.4694 1.61055C31.026 1.74134 31.5473 1.8482 31.9859 2.09798C34.024 3.29828 35.3508 4.52143 36.5719 6.54179C36.8328 6.96973 36.9632 7.43282 37.1763 7.8959C37.4721 8.58617 37.8045 9.31075 38.1479 9.96346C38.3016 10.2729 38.4205 10.617 38.634 10.8783C38.7173 10.9978 38.954 11.0331 39.0955 11.1044C39.4868 11.3069 39.9607 11.4607 40.3287 11.6983C41.0158 12.1267 41.6801 12.6373 42.2841 13.1599C42.5092 13.3617 42.6625 13.6473 42.877 13.8607V13.9684C42.6866 14.0268 42.4969 14.0866 42.3071 14.1346C41.8923 14.2411 41.525 14.217 41.1226 14.3236C40.874 14.3957 40.5653 14.4909 40.3046 14.515L40.3287 14.5393C40.4821 14.9776 41.312 15.3341 41.6916 15.5963C42.1526 15.929 42.5798 16.3325 42.9236 16.7959C43.0424 16.9142 43.1611 17.0218 43.2793 17.1397C43.3619 17.2592 43.3851 17.4137 43.4687 17.5202V17.5563C43.3762 17.5237 43.3096 17.4613 43.2465 17.3962L43.2089 17.3569C43.1713 17.3178 43.1333 17.2794 43.09 17.2478C42.8284 17.0691 42.5687 16.8554 42.3071 16.6893C41.8574 16.404 41.3358 16.2383 40.874 15.9519C40.6129 15.7856 40.3641 15.5963 40.1152 15.406C39.8896 15.2392 39.6411 14.919 39.4994 14.6813C39.4159 14.55 39.4044 14.3957 39.309 14.3007C39.3261 14.1421 39.4714 14.095 39.618 14.0563L39.6518 14.0474C39.7024 14.0343 39.7519 14.0211 39.7951 14.0038C40.4112 13.7422 41.1457 13.6473 42.0941 13.6711C42.0584 13.4329 41.4657 13.1362 41.2765 12.9936C40.8968 12.7199 40.4947 12.4343 40.0919 12.1852C39.8784 12.0547 39.5105 11.9595 39.274 11.8529C38.954 11.7221 38.2428 11.5914 38.0655 11.3422C37.7643 10.9495 37.5479 10.4811 37.3378 10.008L37.2807 9.87887C37.2616 9.83583 37.2425 9.79282 37.2233 9.74982C36.9751 9.18004 36.6666 8.586 36.4177 8.00259C36.2876 7.718 36.2279 7.46821 36.0854 7.19525C35.2206 5.52023 33.9407 4.11784 32.3889 3.13159C31.879 2.81068 31.3103 2.5137 30.6826 2.31186C30.3269 2.20442 29.9 2.26384 29.521 2.18141H29.2715C29.0586 2.12141 28.8809 1.89573 28.7148 1.77674C28.3479 1.52762 27.9805 1.36035 27.5418 1.18261C27.388 1.11131 26.949 0.945292 26.7958 1.076C26.7009 1.09985 26.6528 1.13566 26.6295 1.23089C26.5351 1.37298 26.6181 1.58703 26.6768 1.71807C26.8548 2.09781 27.1034 2.3235 27.3291 2.64441C27.5299 2.92901 27.7792 3.24992 27.9216 3.55936C28.2287 4.22453 28.3717 4.9615 28.6563 5.62659C28.7618 5.8767 28.9288 6.1613 29.0824 6.3869C29.2126 6.56597 29.4494 6.69543 29.521 6.92212C29.6637 7.15977 29.3073 7.94393 29.2247 8.19296C28.9161 9.16741 28.9759 10.5219 29.3314 11.3666L29.3503 11.4111L29.3693 11.4563C29.499 11.7656 29.638 12.0987 29.9831 12.1852C30.0068 12.1616 29.9831 12.174 30.0302 12.1616C30.1137 11.5079 30.1372 10.8782 30.3626 10.3667C30.4928 10.0469 30.7528 9.82079 30.931 9.5597C31.0498 9.63083 31.0498 9.8453 31.1206 9.98722C31.2749 10.3553 31.4405 10.7589 31.6306 11.1281C32.0208 11.8884 32.4599 12.6256 32.9574 13.2906C33.124 13.5282 33.3604 13.7897 33.5736 14.0037C33.6686 14.0865 33.7749 14.1344 33.8463 14.241H33.8696V14.2769C33.5141 14.1459 33.2887 13.7781 33.0052 13.5634C32.4714 13.1598 31.8322 12.5537 31.4642 11.9721C31.3103 11.6382 31.144 11.3182 30.9781 10.986V10.962C30.9072 11.0569 30.931 11.1511 30.8955 11.2947C30.7416 11.8884 30.8601 12.5657 30.3269 12.7793C29.7225 13.0294 29.2716 12.3757 29.0824 12.0786C28.4778 11.0926 28.3122 9.42924 28.7386 8.08652C28.8333 7.78929 28.8462 7.43282 29.0115 7.1955C28.9758 6.98095 28.8104 6.92228 28.7148 6.79083C28.5489 6.56614 28.4069 6.30439 28.2771 6.05486C28.0276 5.56743 27.8501 4.98502 27.6607 4.46227C27.5775 4.2488 27.5536 4.0345 27.4706 3.83241C27.329 3.52396 27.068 3.21452 26.8667 2.94164C26.5941 2.54943 25.8 1.78928 26.1201 1.0165ZM30.0066 3.3444C30.0382 3.37614 30.0765 3.40389 30.116 3.43123L30.1637 3.46397C30.2273 3.50801 30.2889 3.55438 30.3266 3.61753C30.3864 3.70112 30.3975 3.78363 30.4692 3.86739C30.4692 4.15299 30.3864 4.34286 30.2193 4.46119C30.2193 4.46119 30.2079 4.47365 30.1962 4.48529C30.1015 4.29492 30.0185 4.10554 29.9231 3.91534C29.8056 3.74932 29.6395 3.61761 29.5437 3.42791H29.5207V3.40406C29.6637 3.36874 29.8056 3.3444 30.0066 3.3444Z" fill="#002E38"/>
</g>
<defs>
<clipPath id="clip0_2_452">
<rect width="42.5444" height="29" fill="white" transform="translate(0.924316 0.407166)"/>
</clipPath>
</defs>
</svg>
