<svg width="41" height="41" viewBox="0 0 41 41" fill="none" xmlns="http://www.w3.org/2000/svg">
<path d="M20.2349 29.2462C29.8998 29.2462 37.7349 25.1245 37.7349 20.04C37.7349 14.9555 29.8998 10.8337 20.2349 10.8337C10.5699 10.8337 2.73486 14.9555 2.73486 20.04C2.73486 25.1245 10.5699 29.2462 20.2349 29.2462Z" fill="url(#paint0_radial_2_456)"/>
<path d="M20.2349 28.5625C29.5223 28.5625 37.0511 24.7468 37.0511 20.04C37.0511 15.3331 29.5223 11.5175 20.2349 11.5175C10.9475 11.5175 3.41864 15.3331 3.41864 20.04C3.41864 24.7468 10.9475 28.5625 20.2349 28.5625Z" fill="#6280B6"/>
<path d="M23.6411 22.79L24.4749 18.4975C24.5936 18.1301 24.6132 17.7379 24.5315 17.3605C24.4499 16.9832 24.2699 16.6341 24.0099 16.3487C23.284 15.8333 22.3953 15.6 21.5099 15.6925H20.0686L20.4824 13.5675C20.4899 13.5279 20.4886 13.4872 20.4786 13.4482C20.4686 13.4092 20.4501 13.3728 20.4244 13.3418C20.3987 13.3108 20.3665 13.2858 20.3301 13.2686C20.2937 13.2514 20.2539 13.2425 20.2136 13.2425H18.2136C18.1501 13.2425 18.0886 13.2645 18.0395 13.3049C17.9905 13.3453 17.957 13.4014 17.9449 13.4637L17.0586 18.0212C16.9904 17.534 16.7834 17.0766 16.4624 16.7037C16.1049 16.3458 15.6737 16.07 15.1987 15.8958C14.7237 15.7216 14.2165 15.6531 13.7124 15.695H9.85985C9.79635 15.695 9.73481 15.717 9.68578 15.7574C9.63675 15.7978 9.60328 15.8539 9.5911 15.9162L7.7986 25.1412C7.79106 25.1808 7.79234 25.2216 7.80236 25.2606C7.81238 25.2996 7.83088 25.3359 7.85655 25.3669C7.88222 25.398 7.91442 25.423 7.95086 25.4401C7.9873 25.4573 8.02707 25.4662 8.06735 25.4662H10.0711C10.1346 25.4663 10.1961 25.4442 10.2452 25.4038C10.2942 25.3635 10.3277 25.3073 10.3399 25.245L10.7736 23.0137H12.2736C12.9359 23.0314 13.597 22.9471 14.2336 22.7637C14.7704 22.5861 15.2613 22.292 15.6711 21.9025C16.0069 21.5966 16.2936 21.2407 16.5211 20.8475L16.1624 22.6912C16.1548 22.7308 16.1561 22.7716 16.1661 22.8106C16.1761 22.8496 16.1946 22.8859 16.2203 22.9169C16.246 22.948 16.2782 22.973 16.3146 22.9901C16.351 23.0073 16.3908 23.0162 16.4311 23.0162H18.4311C18.4946 23.0163 18.5561 22.9942 18.6052 22.9538C18.6542 22.9135 18.6877 22.8573 18.6999 22.795L19.6836 17.7312H21.0511C21.6336 17.7312 21.8011 17.8475 21.8511 17.8975C21.9011 17.9475 21.9761 18.1037 21.8824 18.6087L21.0886 22.69C21.0811 22.7296 21.0823 22.7703 21.0924 22.8093C21.1024 22.8483 21.1209 22.8847 21.1465 22.9157C21.1722 22.9467 21.2044 22.9717 21.2409 22.9889C21.2773 23.0061 21.3171 23.015 21.3574 23.015H23.3824C23.4447 23.0126 23.5043 22.9889 23.5513 22.948C23.5984 22.9071 23.63 22.8514 23.6411 22.79ZM14.3974 19.2475C14.3362 19.7723 14.0871 20.2572 13.6961 20.6125C13.2049 20.918 12.629 21.0586 12.0524 21.0137H11.1624L11.8061 17.7H12.9574C13.8036 17.7 14.1436 17.8812 14.2811 18.0325C14.386 18.215 14.4506 18.4179 14.4707 18.6274C14.4907 18.837 14.4657 19.0484 14.3974 19.2475ZM32.1674 16.705C31.8099 16.347 31.3787 16.0713 30.9037 15.8971C30.4287 15.7228 29.9215 15.6543 29.4174 15.6962H25.5536C25.4901 15.6962 25.4286 15.7183 25.3795 15.7586C25.3305 15.799 25.297 15.8552 25.2849 15.9175L23.4924 25.1425C23.4848 25.1821 23.4861 25.2228 23.4961 25.2618C23.5061 25.3008 23.5246 25.3372 23.5503 25.3682C23.576 25.3992 23.6082 25.4242 23.6446 25.4414C23.681 25.4586 23.7208 25.4675 23.7611 25.4675H25.7711C25.8346 25.4675 25.8961 25.4455 25.9452 25.4051C25.9942 25.3647 26.0277 25.3086 26.0399 25.2462L26.4736 23.015H27.9736C28.6359 23.0327 29.297 22.9484 29.9336 22.765C30.4704 22.5874 30.9613 22.2933 31.3711 21.9037C32.0729 21.2712 32.5458 20.4243 32.7161 19.495C32.8506 19.0196 32.871 18.5191 32.7756 18.0343C32.6803 17.5495 32.4719 17.0941 32.1674 16.705ZM30.0836 19.2475C30.0225 19.7723 29.7734 20.2572 29.3824 20.6125C28.89 20.9183 28.3126 21.0585 27.7349 21.0125H26.8474L27.4911 17.6987H28.6424C29.4886 17.6987 29.8286 17.88 29.9661 18.0312C30.0714 18.2138 30.1363 18.4169 30.1566 18.6266C30.1769 18.8364 30.152 19.0481 30.0836 19.2475Z" fill="white"/>
<path d="M12.9573 17.425C13.227 17.391 13.5008 17.4109 13.7628 17.4834C14.0248 17.5559 14.2697 17.6796 14.4836 17.8475C14.6216 18.0599 14.7096 18.3009 14.741 18.5523C14.7724 18.8036 14.7463 19.0588 14.6648 19.2987C14.5934 19.8893 14.3079 20.4332 13.8623 20.8275C13.325 21.1735 12.6898 21.3359 12.0523 21.29H10.8298L11.5798 17.4287L12.9573 17.425ZM8.0611 25.195H10.0711L10.5473 22.7425H12.2686C12.9022 22.7597 13.5346 22.6792 14.1436 22.5037C14.6434 22.3387 15.1003 22.0646 15.4811 21.7012C16.1403 21.1082 16.5843 20.3134 16.7436 19.4412C16.8697 19.0075 16.8919 18.5501 16.8083 18.1062C16.7247 17.6623 16.5376 17.2443 16.2623 16.8862C15.9304 16.5579 15.5308 16.3059 15.0915 16.1479C14.6522 15.9898 14.1836 15.9296 13.7186 15.9712H9.85985L8.0611 25.195ZM18.2186 13.5175H20.2186L19.7348 15.97H21.5111C22.3269 15.8846 23.1465 16.0919 23.8236 16.555C24.0477 16.8097 24.2009 17.1188 24.2678 17.4514C24.3347 17.784 24.313 18.1284 24.2048 18.45L23.3711 22.7425H21.3473L22.1411 18.6612C22.1964 18.5054 22.2161 18.3393 22.1988 18.1749C22.1815 18.0105 22.1276 17.8521 22.0411 17.7112C21.7516 17.5038 21.3941 17.4145 21.0411 17.4612H19.4473L18.4198 22.7462H16.4198L18.2186 13.5175ZM28.6436 17.425C28.9133 17.391 29.187 17.4109 29.449 17.4834C29.711 17.5559 29.956 17.6796 30.1698 17.8475C30.3078 18.0599 30.3958 18.3009 30.4272 18.5523C30.4586 18.8036 30.4326 19.0588 30.3511 19.2987C30.2796 19.8893 29.9941 20.4332 29.5486 20.8275C29.0102 21.1743 28.3736 21.3367 27.7348 21.29H26.5123L27.2623 17.4287L28.6436 17.425ZM23.7473 25.195H25.7573L26.2336 22.7425H27.9548C28.5884 22.7597 29.2208 22.6792 29.8298 22.5037C30.3297 22.3387 30.7865 22.0646 31.1673 21.7012C31.8265 21.1082 32.2705 20.3134 32.4298 19.4412C32.556 19.0075 32.5781 18.5501 32.4945 18.1062C32.4109 17.6623 32.2239 17.2443 31.9486 16.8862C31.6167 16.5579 31.2171 16.3059 30.7777 16.1479C30.3384 15.9898 29.8699 15.9296 29.4048 15.9712H25.5398L23.7473 25.195Z" fill="#000004"/>
<defs>
<radialGradient id="paint0_radial_2_456" cx="0" cy="0" r="1" gradientUnits="userSpaceOnUse" gradientTransform="translate(13.2424 14.0712) scale(22.98 22.98)">
<stop stop-color="white"/>
<stop offset="0.5" stop-color="#4C6B96"/>
<stop offset="1" stop-color="#231F20"/>
</radialGradient>
</defs>
</svg>
