<svg xmlns="http://www.w3.org/2000/svg" version="1.1" xmlns:xlink="http://www.w3.org/1999/xlink" xmlns:svgjs="http://svgjs.dev/svgjs" width="1000" height="1204" viewBox="0 0 1000 1204"><g transform="matrix(1,0,0,1,-0.4556860383417529,0.48744939271250587)"><svg viewBox="0 0 205 247" data-background-color="#ffffff" preserveAspectRatio="xMidYMid meet" height="1204" width="1000" xmlns="http://www.w3.org/2000/svg" xmlns:xlink="http://www.w3.org/1999/xlink"><g id="tight-bounds" transform="matrix(1,0,0,1,0.0934156378600619,-0.09999999999999432)"><svg viewBox="0 0 204.81316872427985 247.2" height="247.2" width="204.81316872427985"><g><svg viewBox="0 0 204.81316872427985 247.2" height="247.2" width="204.81316872427985"><g><svg viewBox="0 0 204.81316872427985 247.2" height="247.2" width="204.81316872427985"><g id="textblocktransform"><svg viewBox="0 0 204.81316872427985 247.2" height="247.2" width="204.81316872427985" id="textblock"><g><svg viewBox="0 0 204.81316872427985 247.2" height="247.2" width="204.81316872427985"><g transform="matrix(1,0,0,1,0,0)"><svg width="204.81316872427985" viewBox="1.25 -36 30.200000762939453 36.45000076293945" height="247.2" data-palette-color="#7fdbff"><g class="undefined-text-0" data-fill-palette-color="primary" id="text-0"><path d="M27.45-2.1Q25.95-1 23.28-0.28 20.6 0.45 16.38 0.45 12.15 0.45 8.35-0.25 4.55-0.95 2.9-1.8 1.25-2.65 1.25-3.45L1.25-3.45Q1.25-6.25 2.05-9.28 2.85-12.3 3.95-12.3L3.95-12.3Q4.15-12.3 8.1-10.95 12.05-9.6 14.05-9.6 16.05-9.6 16.65-10.03 17.25-10.45 17.25-11.25 17.25-12.05 16.15-12.68 15.05-13.3 13.4-13.78 11.75-14.25 9.83-15.15 7.9-16.05 6.25-17.15 4.6-18.25 3.5-20.28 2.4-22.3 2.4-24.9L2.4-24.9Q2.4-36 15.65-36L15.65-36Q20.6-36 24.2-35.38 27.8-34.75 29.28-33.98 30.75-33.2 30.75-32.45L30.75-32.45Q30.75-29.85 29.53-26.85 28.3-23.85 27.15-23.85L27.15-23.85Q26.95-23.85 25.85-24.3L25.85-24.3Q22.55-25.75 20.38-25.75 18.2-25.75 17.43-25.35 16.65-24.95 16.65-24.13 16.65-23.3 17.75-22.78 18.85-22.25 20.48-21.83 22.1-21.4 24.03-20.53 25.95-19.65 27.6-18.48 29.25-17.3 30.35-15.15 31.45-13 31.45-10.15L31.45-10.15Q31.45-7.15 29.9-4.7L29.9-4.7Q28.95-3.2 27.45-2.1Z" fill="#7fdbff" data-fill-palette-color="primary"></path></g></svg></g></svg></g></svg></g></svg></g></svg></g><defs></defs></svg><rect width="204.81316872427985" height="247.2" fill="none" stroke="none" visibility="hidden"></rect></g></svg></g></svg>