<svg width="41" height="46" viewBox="0 0 41 46" fill="none" xmlns="http://www.w3.org/2000/svg">
<g clip-path="url(#clip0_2_443)">
<path d="M20.3106 45.5343C19.6895 45.5343 19.1098 45.3687 18.5715 45.0789L13.0642 41.8076C12.2361 41.3521 12.6501 41.1865 12.8986 41.1037C14.0165 40.7311 14.2236 40.6482 15.383 39.9856C15.5073 39.9028 15.673 39.9442 15.797 40.027L20.0208 42.5529C20.1864 42.6357 20.3934 42.6357 20.5176 42.5529L37.0395 32.9878C37.2051 32.905 37.288 32.7393 37.288 32.5323V13.4431C37.288 13.2361 37.2051 13.0704 37.0395 12.9876L20.5176 3.46371C20.352 3.3809 20.145 3.3809 20.0208 3.46371L3.49889 12.9878C3.33326 13.0706 3.25045 13.2776 3.25045 13.4432V32.5323C3.25045 32.6979 3.33326 32.905 3.49889 32.9878L8.01248 35.5964C10.4556 36.8386 11.9875 35.3893 11.9875 33.9401V15.0993C11.9875 14.8509 12.1947 14.6025 12.4845 14.6025H14.5964C14.8448 14.6025 15.0933 14.8095 15.0933 15.0993V33.94C15.0933 37.2112 13.3126 39.1159 10.207 39.1159C9.25467 39.1159 8.50936 39.1159 6.39764 38.0807L2.04967 35.5964C0.973108 34.9751 0.310608 33.8157 0.310608 32.5736V13.4846C0.310608 12.2425 0.973108 11.0831 2.04967 10.4618L18.5715 0.89668C19.6067 0.316992 21.0145 0.316992 22.0497 0.89668L38.5715 10.4618C39.6481 11.0829 40.3106 12.2423 40.3106 13.4846V32.5737C40.3106 33.8159 39.6481 34.9753 38.5715 35.5964L22.0497 45.1618C21.5114 45.4103 20.8903 45.5345 20.3106 45.5345V45.5343ZM25.4037 32.4079C18.1573 32.4079 16.6667 29.0954 16.6667 26.2796C16.6667 26.0312 16.8737 25.7828 17.1636 25.7828H19.3167C19.5651 25.7828 19.7723 25.9484 19.7723 26.1968C20.1036 28.3914 21.0559 29.4681 25.4451 29.4681C28.9234 29.4681 30.4142 28.6814 30.4142 26.8181C30.4142 25.7414 30.0001 24.9546 24.5756 24.4162C20.0622 23.9607 17.2464 22.967 17.2464 19.3646C17.2464 16.0104 20.062 14.0229 24.7826 14.0229C30.0828 14.0229 32.6915 15.8448 33.0228 19.82C33.0228 19.9442 32.9814 20.0684 32.8986 20.1926C32.8158 20.2754 32.6915 20.3582 32.5673 20.3582H30.4142C30.207 20.3582 30.0001 20.1926 29.9586 19.9856C29.4617 17.7082 28.1781 16.9629 24.7826 16.9629C20.9733 16.9629 20.5176 18.2879 20.5176 19.2817C20.5176 20.4826 21.0559 20.8551 26.1905 21.5176C31.2837 22.1801 33.6853 23.1326 33.6853 26.6937C33.6439 30.3376 30.6626 32.4079 25.4037 32.4079Z" fill="#539E43"/>
</g>
<defs>
<clipPath id="clip0_2_443">
<rect width="40" height="45.1562" fill="white" transform="translate(0.310608 0.461853)"/>
</clipPath>
</defs>
</svg>
