<svg width="41" height="41" viewBox="0 0 41 41" fill="none" xmlns="http://www.w3.org/2000/svg">
<path d="M4.79548 17.69L14.4288 8.03997L17.2455 10.8733C16.8455 12.29 17.4955 13.84 18.7955 14.59V23.8233C17.7955 24.39 17.1288 25.4733 17.1288 26.7066C17.1288 27.5907 17.48 28.4385 18.1051 29.0637C18.7302 29.6888 19.5781 30.04 20.4622 30.04C21.3462 30.04 22.1941 29.6888 22.8192 29.0637C23.4443 28.4385 23.7955 27.5907 23.7955 26.7066C23.7955 25.4733 23.1288 24.39 22.1288 23.8233V15.7233L25.5788 19.2066C25.4621 19.4566 25.4622 19.74 25.4622 20.04C25.4622 20.924 25.8133 21.7719 26.4385 22.397C27.0636 23.0221 27.9114 23.3733 28.7955 23.3733C29.6795 23.3733 30.5274 23.0221 31.1525 22.397C31.7776 21.7719 32.1288 20.924 32.1288 20.04C32.1288 19.1559 31.7776 18.3081 31.1525 17.6829C30.5274 17.0578 29.6795 16.7066 28.7955 16.7066C28.4955 16.7066 28.2122 16.7066 27.9622 16.8233L23.6788 12.54C23.8858 11.768 23.8055 10.9472 23.453 10.23C23.1005 9.5127 22.4997 8.94773 21.7621 8.63997C21.0455 8.3733 20.2955 8.30664 19.6288 8.48997L16.7955 5.6733L18.1122 4.3733C19.4122 3.05664 21.5121 3.05664 22.8121 4.3733L36.1288 17.69C37.4455 18.99 37.4455 21.09 36.1288 22.39L22.8121 35.7066C21.5121 37.0233 19.4122 37.0233 18.1122 35.7066L4.79548 22.39C3.47882 21.09 3.47882 18.99 4.79548 17.69Z" fill="#D1723E"/>
</svg>
