<svg width="521" height="449" viewBox="0 0 521 449" fill="none" xmlns="http://www.w3.org/2000/svg">
<g clip-path="url(#clip0_2_57)">
<path d="M24.7665 312.605L134.464 260.718" stroke="#CCD6F6" stroke-opacity="0.15" stroke-width="1.5"/>
<path d="M24.7665 312.605L99.4628 435.289" stroke="#CCD6F6" stroke-opacity="0.15" stroke-width="1.5"/>
<path d="M4.36554 523.908L99.4628 435.289" stroke="#CCD6F6" stroke-opacity="0.15" stroke-width="1.5"/>
<path d="M4.36554 523.908L-120.531 396.34" stroke="#CCD6F6" stroke-opacity="0.15" stroke-width="1.5"/>
<path d="M4.36554 523.908L24.7665 312.605" stroke="#CCD6F6" stroke-opacity="0.15" stroke-width="1.5"/>
<path d="M136.102 167.903L134.464 260.718" stroke="#CCD6F6" stroke-opacity="0.15" stroke-width="1.5"/>
<path d="M136.102 167.903L233.53 153.266" stroke="#CCD6F6" stroke-opacity="0.15" stroke-width="1.5"/>
<path d="M136.102 167.903L252.588 286.424" stroke="#CCD6F6" stroke-opacity="0.15" stroke-width="1.5"/>
<path d="M136.102 167.903L24.7665 312.605" stroke="#CCD6F6" stroke-opacity="0.15" stroke-width="1.5"/>
<path d="M136.102 167.903L358.299 165.235" stroke="#CCD6F6" stroke-opacity="0.15" stroke-width="1.5"/>
<path d="M134.464 260.718L252.588 286.424" stroke="#CCD6F6" stroke-opacity="0.15" stroke-width="1.5"/>
<path d="M134.464 260.718L233.53 153.266" stroke="#CCD6F6" stroke-opacity="0.15" stroke-width="1.5"/>
<path d="M99.4628 435.289L96.6594 518.59" stroke="#CCD6F6" stroke-opacity="0.15" stroke-width="1.5"/>
<path d="M99.4628 435.289L238.233 403.153" stroke="#CCD6F6" stroke-opacity="0.15" stroke-width="1.5"/>
<path d="M96.6594 518.59L238.233 403.153" stroke="#CCD6F6" stroke-opacity="0.15" stroke-width="1.5"/>
<path d="M96.6594 518.59L24.7665 312.605" stroke="#CCD6F6" stroke-opacity="0.15" stroke-width="1.5"/>
<path d="M233.53 153.266L358.299 165.235" stroke="#CCD6F6" stroke-opacity="0.15" stroke-width="1.5"/>
<path d="M233.53 153.266L252.588 286.424" stroke="#CCD6F6" stroke-opacity="0.15" stroke-width="1.5"/>
<path d="M252.588 286.424L238.233 403.153" stroke="#CCD6F6" stroke-opacity="0.15" stroke-width="1.5"/>
<path d="M252.588 286.424L397.547 317.074" stroke="#CCD6F6" stroke-opacity="0.15" stroke-width="1.5"/>
<path d="M252.588 286.424L358.299 165.235" stroke="#CCD6F6" stroke-opacity="0.15" stroke-width="1.5"/>
<path d="M238.233 403.153L395.183 437.319" stroke="#CCD6F6" stroke-opacity="0.15" stroke-width="1.5"/>
<path d="M238.233 403.153L351.291 525.2" stroke="#CCD6F6" stroke-opacity="0.15" stroke-width="1.5"/>
<path d="M271.528 567.181L238.233 403.153" stroke="#CCD6F6" stroke-opacity="0.15" stroke-width="1.5"/>
<path d="M271.528 567.181L395.183 437.319" stroke="#CCD6F6" stroke-opacity="0.15" stroke-width="1.5"/>
<path d="M271.528 567.181L99.4628 435.289" stroke="#CCD6F6" stroke-opacity="0.15" stroke-width="1.5"/>
<path d="M389.348 -77.1928L350.505 24.432" stroke="#CCD6F6" stroke-opacity="0.15" stroke-width="1.5"/>
<path d="M350.505 24.432L477.133 46.0856" stroke="#CCD6F6" stroke-opacity="0.15" stroke-width="1.5"/>
<path d="M358.299 165.235L350.505 24.432" stroke="#CCD6F6" stroke-opacity="0.15" stroke-width="1.5"/>
<path d="M358.299 165.235L508.249 134.042" stroke="#CCD6F6" stroke-opacity="0.15" stroke-width="1.5"/>
<path d="M358.299 165.235L397.547 317.074" stroke="#CCD6F6" stroke-opacity="0.15" stroke-width="1.5"/>
<path d="M397.547 317.074L395.183 437.319" stroke="#CCD6F6" stroke-opacity="0.15" stroke-width="1.5"/>
<path d="M397.547 317.074L519.733 323.606" stroke="#CCD6F6" stroke-opacity="0.15" stroke-width="1.5"/>
<path d="M397.547 317.074L496.748 403.765" stroke="#CCD6F6" stroke-opacity="0.15" stroke-width="1.5"/>
<path d="M395.183 437.319L351.291 525.199" stroke="#CCD6F6" stroke-opacity="0.15" stroke-width="1.5"/>
<path d="M395.183 437.319L496.749 403.765" stroke="#CCD6F6" stroke-opacity="0.15" stroke-width="1.5"/>
<path d="M395.183 437.319L519.733 323.606" stroke="#CCD6F6" stroke-opacity="0.15" stroke-width="1.5"/>
<path d="M506.476 -74.2281L477.133 46.0856" stroke="#CCD6F6" stroke-opacity="0.15" stroke-width="1.5"/>
<path d="M506.476 -74.2281L350.505 24.432" stroke="#CCD6F6" stroke-opacity="0.15" stroke-width="1.5"/>
<path d="M477.133 46.0856L508.249 134.042" stroke="#CCD6F6" stroke-opacity="0.15" stroke-width="1.5"/>
<path d="M508.25 134.042L631.069 158.66" stroke="#CCD6F6" stroke-opacity="0.15" stroke-width="1.5"/>
<path d="M508.25 134.042L655.548 53.3063" stroke="#CCD6F6" stroke-opacity="0.15" stroke-width="1.5"/>
<path d="M519.733 323.606L496.749 403.765" stroke="#CCD6F6" stroke-opacity="0.15" stroke-width="1.5"/>
<path d="M519.733 323.606L627.716 322.723" stroke="#CCD6F6" stroke-opacity="0.15" stroke-width="1.5"/>
<path d="M496.749 403.765L535.878 533.609" stroke="#CCD6F6" stroke-opacity="0.15" stroke-width="1.5"/>
<path d="M535.878 533.609L395.183 437.319" stroke="#CCD6F6" stroke-opacity="0.15" stroke-width="1.5"/>
<path d="M535.878 533.609L519.733 323.606" stroke="#CCD6F6" stroke-opacity="0.15" stroke-width="1.5"/>
<path d="M653.505 424.942L496.749 403.765" stroke="#CCD6F6" stroke-opacity="0.15" stroke-width="1.5"/>
<path d="M606.268 547.448L496.749 403.765" stroke="#CCD6F6" stroke-opacity="0.15" stroke-width="1.5"/>
<path d="M24.7665 316.853C27.0983 316.853 28.9886 314.951 28.9886 312.605C28.9886 310.26 27.0983 308.358 24.7665 308.358C22.4348 308.358 20.5445 310.26 20.5445 312.605C20.5445 314.951 22.4348 316.853 24.7665 316.853Z" fill="#CCD6F6" fill-opacity="0.15"/>
<path d="M136.102 172.15C138.434 172.15 140.324 170.249 140.324 167.903C140.324 165.557 138.434 163.655 136.102 163.655C133.77 163.655 131.88 165.557 131.88 167.903C131.88 170.249 133.77 172.15 136.102 172.15Z" fill="#CCD6F6" fill-opacity="0.15"/>
<path d="M134.464 264.966C136.795 264.966 138.686 263.064 138.686 260.718C138.686 258.373 136.795 256.471 134.464 256.471C132.132 256.471 130.242 258.373 130.242 260.718C130.242 263.064 132.132 264.966 134.464 264.966Z" fill="#CCD6F6" fill-opacity="0.15"/>
<path d="M99.4628 439.537C101.795 439.537 103.685 437.635 103.685 435.289C103.685 432.943 101.795 431.042 99.4628 431.042C97.1311 431.042 95.2408 432.943 95.2408 435.289C95.2408 437.635 97.1311 439.537 99.4628 439.537Z" fill="#CCD6F6" fill-opacity="0.15"/>
<path d="M233.53 157.514C235.861 157.514 237.752 155.612 237.752 153.266C237.752 150.92 235.861 149.019 233.53 149.019C231.198 149.019 229.308 150.92 229.308 153.266C229.308 155.612 231.198 157.514 233.53 157.514Z" fill="#CCD6F6" fill-opacity="0.15"/>
<path d="M252.588 290.672C254.92 290.672 256.81 288.77 256.81 286.424C256.81 284.078 254.92 282.177 252.588 282.177C250.256 282.177 248.366 284.078 248.366 286.424C248.366 288.77 250.256 290.672 252.588 290.672Z" fill="#CCD6F6" fill-opacity="0.15"/>
<path d="M238.233 407.4C240.565 407.4 242.455 405.499 242.455 403.153C242.455 400.807 240.565 398.905 238.233 398.905C235.901 398.905 234.011 400.807 234.011 403.153C234.011 405.499 235.901 407.4 238.233 407.4Z" fill="#CCD6F6" fill-opacity="0.15"/>
<path d="M350.505 28.6795C352.837 28.6795 354.728 26.7778 354.728 24.432C354.728 22.0862 352.837 20.1846 350.505 20.1846C348.174 20.1846 346.283 22.0862 346.283 24.432C346.283 26.7778 348.174 28.6795 350.505 28.6795Z" fill="#CCD6F6" fill-opacity="0.15"/>
<path d="M358.299 169.483C360.631 169.483 362.521 167.581 362.521 165.235C362.521 162.89 360.631 160.988 358.299 160.988C355.968 160.988 354.077 162.89 354.077 165.235C354.077 167.581 355.968 169.483 358.299 169.483Z" fill="#CCD6F6" fill-opacity="0.15"/>
<path d="M397.547 321.321C399.879 321.321 401.77 319.42 401.77 317.074C401.77 314.728 399.879 312.826 397.547 312.826C395.216 312.826 393.325 314.728 393.325 317.074C393.325 319.42 395.216 321.321 397.547 321.321Z" fill="#CCD6F6" fill-opacity="0.15"/>
<path d="M395.183 441.567C397.515 441.567 399.405 439.665 399.405 437.319C399.405 434.974 397.515 433.072 395.183 433.072C392.851 433.072 390.961 434.974 390.961 437.319C390.961 439.665 392.851 441.567 395.183 441.567Z" fill="#CCD6F6" fill-opacity="0.15"/>
<path d="M477.133 50.3331C479.465 50.3331 481.355 48.4314 481.355 46.0856C481.355 43.7398 479.465 41.8381 477.133 41.8381C474.801 41.8381 472.911 43.7398 472.911 46.0856C472.911 48.4314 474.801 50.3331 477.133 50.3331Z" fill="#CCD6F6" fill-opacity="0.15"/>
<path d="M508.249 138.29C510.581 138.29 512.471 136.388 512.471 134.042C512.471 131.696 510.581 129.795 508.249 129.795C505.918 129.795 504.027 131.696 504.027 134.042C504.027 136.388 505.918 138.29 508.249 138.29Z" fill="#CCD6F6" fill-opacity="0.15"/>
<path d="M519.733 327.854C522.065 327.854 523.955 325.952 523.955 323.606C523.955 321.261 522.065 319.359 519.733 319.359C517.402 319.359 515.511 321.261 515.511 323.606C515.511 325.952 517.402 327.854 519.733 327.854Z" fill="#CCD6F6" fill-opacity="0.15"/>
<path d="M496.749 408.012C499.08 408.012 500.971 406.11 500.971 403.764C500.971 401.419 499.08 399.517 496.749 399.517C494.417 399.517 492.527 401.419 492.527 403.764C492.527 406.11 494.417 408.012 496.749 408.012Z" fill="#CCD6F6" fill-opacity="0.15"/>
<path d="M-146.767 425.095L21.3889 441.89" stroke="#AAF1E1" stroke-opacity="0.15" stroke-width="1.5"/>
<path d="M397.581 446.163L394.575 525.854" stroke="#AAF1E1" stroke-opacity="0.15" stroke-width="1.5"/>
<path d="M397.581 446.163L509.516 439.273" stroke="#AAF1E1" stroke-opacity="0.15" stroke-width="1.5"/>
<path d="M394.575 525.854L509.516 439.273" stroke="#AAF1E1" stroke-opacity="0.15" stroke-width="1.5"/>
<path d="M394.575 525.854L271.933 436.538" stroke="#AAF1E1" stroke-opacity="0.15" stroke-width="1.5"/>
<path d="M-118.31 522.107L21.3889 441.89" stroke="#AAF1E1" stroke-opacity="0.15" stroke-width="1.5"/>
<path d="M21.3888 441.89L-16.7025 548.391" stroke="#AAF1E1" stroke-opacity="0.15" stroke-width="1.5"/>
<path d="M21.3889 441.89L143.009 440.301" stroke="#AAF1E1" stroke-opacity="0.15" stroke-width="1.5"/>
<path d="M21.3889 441.89L138.12 280.512" stroke="#AAF1E1" stroke-opacity="0.15" stroke-width="1.5"/>
<path d="M21.3889 441.89L271.933 436.538" stroke="#AAF1E1" stroke-opacity="0.15" stroke-width="1.5"/>
<path d="M138.12 280.512L262.4 279.62" stroke="#AAF1E1" stroke-opacity="0.15" stroke-width="1.5"/>
<path d="M138.12 280.512L143.009 440.301" stroke="#AAF1E1" stroke-opacity="0.15" stroke-width="1.5"/>
<path d="M138.12 280.512L271.933 436.538" stroke="#AAF1E1" stroke-opacity="0.15" stroke-width="1.5"/>
<path d="M138.12 280.512L352.237 308.409" stroke="#AAF1E1" stroke-opacity="0.15" stroke-width="1.5"/>
<path d="M143.009 440.301L271.933 436.538" stroke="#AAF1E1" stroke-opacity="0.15" stroke-width="1.5"/>
<path d="M143.009 440.301L282.108 568.872" stroke="#AAF1E1" stroke-opacity="0.15" stroke-width="1.5"/>
<path d="M143.009 440.301L-16.7025 548.391" stroke="#AAF1E1" stroke-opacity="0.15" stroke-width="1.5"/>
<path d="M262.4 279.62L352.237 308.409" stroke="#AAF1E1" stroke-opacity="0.15" stroke-width="1.5"/>
<path d="M271.933 436.538L397.581 446.163" stroke="#AAF1E1" stroke-opacity="0.15" stroke-width="1.5"/>
<path d="M271.933 436.538L282.109 568.872" stroke="#AAF1E1" stroke-opacity="0.15" stroke-width="1.5"/>
<path d="M271.933 436.538L352.237 308.409" stroke="#AAF1E1" stroke-opacity="0.15" stroke-width="1.5"/>
<path d="M352.237 308.409L483.28 272.306" stroke="#AAF1E1" stroke-opacity="0.15" stroke-width="1.5"/>
<path d="M352.237 308.409L397.581 446.163" stroke="#AAF1E1" stroke-opacity="0.15" stroke-width="1.5"/>
<path d="M352.237 308.409L509.516 439.273" stroke="#AAF1E1" stroke-opacity="0.15" stroke-width="1.5"/>
<path d="M534.19 57.7831L507 146.105" stroke="#AAF1E1" stroke-opacity="0.15" stroke-width="1.5"/>
<path d="M534.19 57.7831L483.28 272.305" stroke="#AAF1E1" stroke-opacity="0.15" stroke-width="1.5"/>
<path d="M507 146.105L483.28 272.306" stroke="#AAF1E1" stroke-opacity="0.15" stroke-width="1.5"/>
<path d="M507 146.105L645.635 144.576" stroke="#AAF1E1" stroke-opacity="0.15" stroke-width="1.5"/>
<path d="M507 146.105L634.919 24.585" stroke="#AAF1E1" stroke-opacity="0.15" stroke-width="1.5"/>
<path d="M507 146.105L643.574 303.541" stroke="#AAF1E1" stroke-opacity="0.15" stroke-width="1.5"/>
<path d="M483.28 272.306L643.574 303.541" stroke="#AAF1E1" stroke-opacity="0.15" stroke-width="1.5"/>
<path d="M509.516 439.273L511.838 531.256" stroke="#AAF1E1" stroke-opacity="0.15" stroke-width="1.5"/>
<path d="M509.516 439.273L607.189 410.645" stroke="#AAF1E1" stroke-opacity="0.15" stroke-width="1.5"/>
<path d="M509.516 439.273L619.695 525.964" stroke="#AAF1E1" stroke-opacity="0.15" stroke-width="1.5"/>
<path d="M511.838 531.256L397.581 446.163" stroke="#AAF1E1" stroke-opacity="0.15" stroke-width="1.5"/>
<path d="M607.189 410.645L511.838 531.256" stroke="#AAF1E1" stroke-opacity="0.15" stroke-width="1.5"/>
<path d="M607.189 410.645L483.28 272.306" stroke="#AAF1E1" stroke-opacity="0.15" stroke-width="1.5"/>
<path d="M397.581 467.4C409.24 467.4 418.691 457.892 418.691 446.163C418.691 434.434 409.24 424.925 397.581 424.925C385.922 424.925 376.471 434.434 376.471 446.163C376.471 457.892 385.922 467.4 397.581 467.4Z" fill="url(#paint0_radial_2_57)" fill-opacity="0.15"/>
<path d="M21.3889 446.137C23.7207 446.137 25.611 444.236 25.611 441.89C25.611 439.544 23.7207 437.642 21.3889 437.642C19.0571 437.642 17.1669 439.544 17.1669 441.89C17.1669 444.236 19.0571 446.137 21.3889 446.137Z" fill="#ACF1E2" fill-opacity="0.19"/>
<path d="M138.12 284.759C140.452 284.759 142.342 282.857 142.342 280.512C142.342 278.166 140.452 276.264 138.12 276.264C135.788 276.264 133.898 278.166 133.898 280.512C133.898 282.857 135.788 284.759 138.12 284.759Z" fill="#ACF1E2" fill-opacity="0.19"/>
<path d="M143.009 444.549C145.341 444.549 147.231 442.647 147.231 440.301C147.231 437.955 145.341 436.054 143.009 436.054C140.677 436.054 138.787 437.955 138.787 440.301C138.787 442.647 140.677 444.549 143.009 444.549Z" fill="#ACF1E2" fill-opacity="0.19"/>
<path d="M262.4 283.867C264.732 283.867 266.622 281.965 266.622 279.62C266.622 277.274 264.732 275.372 262.4 275.372C260.068 275.372 258.178 277.274 258.178 279.62C258.178 281.965 260.068 283.867 262.4 283.867Z" fill="#ACF1E2" fill-opacity="0.19"/>
<path d="M271.933 440.785C274.265 440.785 276.155 438.884 276.155 436.538C276.155 434.192 274.265 432.29 271.933 432.29C269.601 432.29 267.711 434.192 267.711 436.538C267.711 438.884 269.601 440.785 271.933 440.785Z" fill="#ACF1E2" fill-opacity="0.19"/>
<path d="M352.236 312.656C354.568 312.656 356.458 310.755 356.458 308.409C356.458 306.063 354.568 304.161 352.236 304.161C349.905 304.161 348.014 306.063 348.014 308.409C348.014 310.755 349.905 312.656 352.236 312.656Z" fill="#ACF1E2" fill-opacity="0.19"/>
<path d="M507 150.352C509.332 150.352 511.222 148.451 511.222 146.105C511.222 143.759 509.332 141.857 507 141.857C504.668 141.857 502.778 143.759 502.778 146.105C502.778 148.451 504.668 150.352 507 150.352Z" fill="#ACF1E2" fill-opacity="0.19"/>
<path d="M483.28 276.553C485.612 276.553 487.502 274.651 487.502 272.306C487.502 269.96 485.612 268.058 483.28 268.058C480.949 268.058 479.058 269.96 479.058 272.306C479.058 274.651 480.949 276.553 483.28 276.553Z" fill="#ACF1E2" fill-opacity="0.19"/>
<path d="M509.516 443.521C511.848 443.521 513.738 441.619 513.738 439.273C513.738 436.927 511.848 435.026 509.516 435.026C507.184 435.026 505.294 436.927 505.294 439.273C505.294 441.619 507.184 443.521 509.516 443.521Z" fill="#ACF1E2" fill-opacity="0.19"/>
</g>
<defs>
<radialGradient id="paint0_radial_2_57" cx="0" cy="0" r="1" gradientUnits="userSpaceOnUse" gradientTransform="translate(397.581 446.163) scale(21.1102 21.2373)">
<stop offset="0.1" stop-color="white"/>
<stop offset="0.2" stop-color="#59E3C5"/>
<stop offset="1" stop-color="#59E3C5" stop-opacity="0"/>
</radialGradient>
<clipPath id="clip0_2_57">
<rect width="521" height="449" fill="white"/>
</clipPath>
</defs>
</svg>
